<?xml version="1.0" encoding="utf-8"?>
<!-- Generator: Adobe Illustrator 23.0.1, SVG Export Plug-In . SVG Version: 6.00 Build 0)  -->
<svg version="1.1" id="Layer_1" xmlns="http://www.w3.org/2000/svg" xmlns:xlink="http://www.w3.org/1999/xlink" x="0px" y="0px"
	 viewBox="0 0 184.7 50.4" style="enable-background:new 0 0 184.7 50.4;" xml:space="preserve">
<style type="text/css">
	.st0{fill:url(#SVGID_1_);}
	.st1{fill:#24283D;}
</style>
<linearGradient id="SVGID_1_" gradientUnits="userSpaceOnUse" x1="0" y1="48.7411" x2="184.7052" y2="48.7411">
	<stop  offset="0" style="stop-color:#11C684"/>
	<stop  offset="1" style="stop-color:#4963FE"/>
</linearGradient>
<rect y="47" class="st0" width="184.7" height="3.4"/>
<title>Logo</title>
<g>
	<path class="st1" d="M21.4,34.1c0,0.1-0.1,0.3-0.1,0.4L21,34.7l-0.7,0.2H18l-0.6-0.2L17,34.4l-0.3-0.5l-2.9-7.6
		c-0.4-0.8-0.7-1.6-1.1-2.3c-0.3-0.7-0.8-1.3-1.3-1.9c-0.5-0.5-1.1-0.9-1.8-1.2c-0.8-0.3-1.6-0.4-2.5-0.4H4.2v13.6
		c0,0.1,0,0.3-0.1,0.4l-0.3,0.2H0.4c-0.2-0.1-0.3-0.1-0.3-0.2C0,34.4,0,34.2,0,34.1V4.4c0-0.6,0.1-1.1,0.5-1.3
		c0.3-0.3,0.7-0.4,1.1-0.4h10.2c1.2,0.1,2.3,0.5,3.3,1c0.9,0.4,1.7,1,2.4,1.8C18.1,6.2,18.7,7,19,7.9c0.3,1,0.4,2,0.4,3
		c0,1-0.1,2-0.4,2.9c-0.3,0.8-0.7,1.6-1.2,2.3c-0.6,0.6-1.3,1.2-2,1.7c-0.8,0.5-1.7,0.9-2.6,1.2c0.6,0.2,1.1,0.5,1.5,0.9
		c0.4,0.4,0.8,0.8,1.2,1.2c0.4,0.6,0.7,1.2,1,1.8c0.4,0.7,0.7,1.4,1,2.1l2.9,7.1l0.5,1.3C21.3,33.6,21.3,33.9,21.4,34.1z M14.9,11.6
		c0.1-1.1-0.2-2.2-0.8-3.2c-0.7-0.9-1.7-1.6-2.8-1.9L9.9,6.3H4.2V17h4.2c1,0,2-0.1,2.9-0.4c0.7-0.2,1.4-0.6,2-1.1
		c0.6-0.5,1-1.1,1.2-1.8C14.8,13,14.9,12.3,14.9,11.6z"/>
	<path class="st1" d="M45.2,22c0,0.5-0.1,1-0.5,1.4c-0.3,0.3-0.7,0.4-1.1,0.4H28.9c0,1.1,0.1,2.2,0.4,3.3c0.2,1,0.6,1.8,1.2,2.6
		c0.6,0.7,1.4,1.3,2.3,1.6c1.1,0.4,2.2,0.6,3.4,0.6c0.9,0,1.9-0.1,2.8-0.3c0.7-0.1,1.5-0.3,2.2-0.5l1.5-0.6l0.9-0.3h0.3
		c0.1,0.1,0.2,0.2,0.2,0.3s0.1,0.2,0.1,0.5s0.1,0.4,0.1,0.7s-0.1,0.4-0.1,0.6v0.4L44,33l-0.2,0.3L43,33.8l-1.7,0.6l-2.5,0.5l-3,0.2
		c-1.6,0-3.3-0.2-4.8-0.7c-2.8-1-4.9-3.3-5.6-6.1c-0.5-1.7-0.7-3.5-0.7-5.3c0-1.8,0.2-3.5,0.7-5.2c0.5-1.4,1.2-2.8,2.2-3.9
		c0.9-1,2-1.9,3.3-2.4c1.4-0.6,3-0.9,4.5-0.9c1.5,0,3.1,0.3,4.5,0.9c2.4,1,4.1,3.1,4.7,5.6c0.4,1.3,0.6,2.7,0.6,4.1L45.2,22z
		 M41.1,20.8c0.1-1.8-0.4-3.6-1.5-5.1c-1.1-1.2-2.7-1.9-4.4-1.8c-0.9,0-1.9,0.2-2.7,0.6c-0.7,0.4-1.4,0.9-1.9,1.5
		c-0.5,0.7-0.9,1.4-1.2,2.2c-0.3,0.8-0.5,1.7-0.5,2.6L41.1,20.8z"/>
	<path class="st1" d="M57.5,14.9c0,0.5-0.1,0.9-0.2,1.4c0,0.3-0.2,0.6-0.4,0.8c-0.2,0.3-0.5,0.5-0.8,0.5l-1.2,0.2l-1.3-0.2
		c-0.3,0-0.6-0.2-0.8-0.5c-0.2-0.2-0.4-0.5-0.4-0.8c-0.1-0.5-0.1-0.9-0.1-1.4c0-0.5,0-0.9,0.1-1.4c0-0.3,0.2-0.6,0.4-0.9
		c0.2-0.2,0.5-0.4,0.8-0.4l1.3-0.2l1.2,0.2c0.3,0,0.6,0.2,0.8,0.4c0.2,0.3,0.4,0.6,0.4,0.9C57.4,14,57.5,14.4,57.5,14.9z M57.5,32.1
		c0,0.5-0.1,0.9-0.2,1.4c0,0.3-0.2,0.7-0.4,0.9c-0.2,0.3-0.5,0.4-0.8,0.4L54.9,35l-1.3-0.2c-0.3,0-0.6-0.1-0.8-0.4
		c-0.2-0.2-0.4-0.6-0.4-0.9c-0.1-0.5-0.1-0.9-0.1-1.4c0-0.4,0-0.9,0.1-1.3c0-0.3,0.2-0.7,0.4-0.9c0.2-0.2,0.5-0.4,0.8-0.5h2.5
		c0.3,0.1,0.6,0.3,0.8,0.5c0.2,0.2,0.4,0.6,0.4,0.9C57.4,31.2,57.5,31.7,57.5,32.1z"/>
	<path class="st1" d="M81,30.7v0.8c0,0.2,0,0.4-0.1,0.5c0,0.1-0.1,0.3-0.1,0.4l-0.4,0.4l-1.1,0.8c-0.5,0.3-1.1,0.6-1.7,0.8
		c-0.6,0.3-1.3,0.5-2,0.6c-0.7,0.2-1.5,0.2-2.2,0.2c-1.5,0.1-2.9-0.2-4.3-0.8c-1.2-0.5-2.3-1.3-3.1-2.3c-0.9-1.1-1.5-2.3-1.9-3.7
		c-0.5-1.7-0.7-3.4-0.7-5.1c0-1.9,0.2-3.9,0.8-5.7c0.5-1.4,1.2-2.7,2.2-3.9c0.9-0.9,2.1-1.7,3.3-2.2c1.3-0.5,2.7-0.8,4.1-0.8
		l2.1,0.2c0.7,0.1,1.3,0.3,1.9,0.6l1.5,0.7l0.9,0.7l0.4,0.5c0.1,0.1,0.2,0.2,0.2,0.4c0.1,0.2,0.1,0.3,0.1,0.5v0.8
		c0,0.6,0,1.1-0.2,1.3c0,0.2-0.3,0.4-0.5,0.4c-0.3,0-0.7-0.1-0.9-0.4l-1.2-0.9l-1.8-0.9c-0.8-0.3-1.6-0.4-2.5-0.4
		c-1.8-0.1-3.5,0.8-4.5,2.3c-1.1,1.5-1.6,3.7-1.6,6.5c0,1.3,0.1,2.6,0.4,3.8c0.2,1,0.6,1.9,1.2,2.7c0.5,0.7,1.2,1.3,2,1.6
		c0.8,0.4,1.7,0.6,2.6,0.6c0.9,0,1.7-0.2,2.5-0.5l1.8-0.9l1.3-1c0.3-0.2,0.6-0.4,0.9-0.4h0.3l0.2,0.3c0.1,0.2,0.1,0.4,0.1,0.6V30.7z
		"/>
	<path class="st1" d="M106.8,22.7c0,1.7-0.3,3.4-0.7,5.1c-0.5,1.4-1.2,2.8-2.2,3.9c-1,1.2-2.2,2.1-3.6,2.6c-1.6,0.6-3.2,0.9-4.9,0.9
		c-1.6,0.1-3.3-0.2-4.8-0.8c-1.3-0.5-2.5-1.3-3.4-2.4c-1-1.1-1.7-2.4-2.1-3.8c-0.4-1.6-0.6-3.3-0.6-5c0-1.7,0.2-3.4,0.7-5
		c0.4-1.5,1.1-2.8,2.1-4c1-1.1,2.2-2,3.6-2.6c1.6-0.6,3.2-0.9,4.9-0.9c1.6,0,3.3,0.2,4.8,0.8c1.3,0.5,2.5,1.4,3.4,2.4
		c1,1.1,1.7,2.4,2.1,3.8C106.5,19.3,106.8,21,106.8,22.7z M102.5,23c0-1.1-0.1-2.3-0.3-3.4c-0.2-1-0.6-1.9-1.1-2.8
		c-0.5-0.8-1.2-1.5-2.1-2c-1-0.5-2.2-0.7-3.3-0.7c-1.1,0-2.2,0.2-3.2,0.7c-0.8,0.4-1.5,1-2.1,1.8c-0.6,0.8-1.1,1.8-1.3,2.8
		c-0.3,1.1-0.4,2.3-0.4,3.5c0,1.2,0.1,2.3,0.3,3.5c0.2,1,0.6,1.9,1.2,2.8c0.5,0.8,1.2,1.5,2.1,1.9c1,0.5,2.2,0.7,3.3,0.7
		c1.1,0,2.1-0.2,3.1-0.7c0.9-0.4,1.6-1,2.2-1.8c0.6-0.8,1-1.7,1.2-2.7C102.4,25.4,102.5,24.2,102.5,23L102.5,23z"/>
	<path class="st1" d="M132,34.1c0,0.2,0,0.3-0.1,0.4l-0.3,0.2l-0.6,0.2h-2l-0.7-0.2l-0.3-0.2c-0.1-0.1-0.1-0.2-0.1-0.4v-13
		c0-1-0.1-2.1-0.3-3.1c-0.2-0.7-0.5-1.4-0.9-2c-0.3-0.6-0.8-1-1.4-1.3c-0.7-0.3-1.4-0.4-2.1-0.4c-1.1,0-2.2,0.4-3.1,1.1
		c-1.2,0.9-2.3,1.9-3.2,3.1v15.6c0,0.2,0,0.3-0.1,0.4l-0.3,0.2l-0.7,0.2h-2l-0.6-0.2c-0.2-0.1-0.3-0.1-0.3-0.2s-0.1-0.2-0.1-0.4
		V11.8c0-0.1,0-0.2,0.1-0.3c0-0.1,0.1-0.2,0.3-0.2l0.5-0.2h1.9l0.5,0.2l0.3,0.2c0.1,0.1,0.1,0.2,0.1,0.3v3c1-1.3,2.3-2.3,3.7-3.1
		c1.2-0.6,2.5-1,3.8-1c1.3,0,2.6,0.2,3.8,0.8c0.9,0.5,1.8,1.2,2.4,2c0.7,0.9,1.2,1.9,1.4,3c0.3,1.3,0.4,2.7,0.4,4L132,34.1z"/>
	<path class="st1" d="M158.5,34.1c0,0.2-0.1,0.3-0.1,0.4l-0.4,0.2l-0.6,0.2h-2l-0.6-0.2c-0.2-0.1-0.3-0.1-0.3-0.2s-0.1-0.2-0.1-0.4
		V14.6h-10.1v19.5c0,0.2,0,0.3-0.1,0.4s-0.1,0.1-0.3,0.2l-0.6,0.2h-2l-0.6-0.2l-0.4-0.2c0-0.1-0.1-0.2-0.1-0.4V14.6h-3.1
		c-0.3,0.1-0.5-0.1-0.6-0.4c0,0,0,0,0,0c-0.1-0.4-0.2-0.9-0.2-1.3v-0.8c0.1-0.2,0.1-0.4,0.2-0.5c0.1-0.1,0.1-0.3,0.2-0.3h3.5V8.9
		c0-1.3,0.2-2.7,0.5-4c0.2-1,0.7-1.9,1.3-2.7c0.6-0.7,1.4-1.2,2.2-1.6c1-0.3,2-0.5,3-0.5h2.1l0.7,0.2l0.5,0.3
		c0.1,0.1,0.1,0.2,0.2,0.2c0.1,0,0.1,0.2,0.1,0.4c0,0.2,0.1,0.3,0.1,0.5v0.7c0,0.4,0,0.7-0.1,1.1c-0.1,0.3-0.2,0.4-0.4,0.4H150
		l-0.6-0.2l-0.8-0.2h-1.1c-1-0.1-1.9,0.4-2.4,1.3c-0.6,1.2-0.9,2.6-0.8,4v2.5h12.9c0.6-0.1,1.2,0.3,1.3,0.9c0,0.1,0,0.3,0,0.4
		L158.5,34.1z M158.9,4.3c0,0.4,0,0.8-0.1,1.2c-0.1,0.3-0.2,0.6-0.4,0.7c-0.2,0.2-0.4,0.4-0.7,0.5h-2.5c-0.3-0.1-0.5-0.3-0.7-0.5
		c-0.2-0.1-0.4-0.4-0.4-0.7c-0.1-0.4-0.2-0.8-0.2-1.2c0-0.4,0.1-0.7,0.2-1.1c0-0.3,0.2-0.6,0.4-0.8l0.7-0.4h2.5l0.7,0.4
		c0.2,0.2,0.3,0.5,0.4,0.8C158.9,3.6,158.9,3.9,158.9,4.3L158.9,4.3z"/>
	<path class="st1" d="M184.7,12.8c0,0.5-0.1,0.9-0.3,1.3c0,0.3-0.3,0.5-0.6,0.4c0,0,0,0,0,0h-3.2c0.6,0.5,1,1.2,1.2,2
		c0.3,0.7,0.4,1.4,0.4,2.2c0,1.2-0.2,2.3-0.6,3.4c-0.4,1-1,1.8-1.8,2.5c-0.8,0.7-1.7,1.2-2.7,1.6c-1.2,0.4-2.4,0.6-3.6,0.6
		c-0.9,0-1.8-0.2-2.6-0.4c-0.7-0.1-1.3-0.4-1.8-0.9c-0.3,0.3-0.6,0.6-0.8,1c-0.2,0.4-0.3,0.8-0.3,1.3c0,0.6,0.3,1.2,0.8,1.5
		c0.7,0.3,1.4,0.5,2.2,0.6l5.8,0.2c1,0.1,2.1,0.2,3.1,0.5c0.9,0.2,1.7,0.6,2.4,1.1c0.6,0.5,1.1,1.2,1.5,1.9c0.4,0.8,0.6,1.7,0.6,2.6
		c0,1-0.2,2-0.6,2.9c-0.5,0.9-1.2,1.7-2,2.4c-1,0.8-2.2,1.4-3.4,1.7c-1.6,0.4-3.2,0.6-4.8,0.6c-1.5,0-3.1-0.2-4.6-0.5
		c-1.1-0.2-2.1-0.6-3.1-1.2c-0.8-0.4-1.4-1.1-1.8-1.9c-0.4-0.7-0.6-1.6-0.6-2.4c0-0.5,0.1-1.1,0.2-1.6c0.4-1,1-2,1.7-2.8
		c0.4-0.4,0.9-0.9,1.4-1.2c-0.7-0.4-1.3-0.9-1.8-1.6c-0.4-0.6-0.6-1.3-0.6-2c0-0.9,0.2-1.9,0.6-2.7c0.4-0.8,0.9-1.5,1.5-2.1
		c-0.5-0.6-0.9-1.3-1.2-2.1c-0.3-0.9-0.4-1.9-0.4-2.8c0-1.2,0.2-2.3,0.6-3.4c0.5-1,1.1-1.8,1.8-2.6c0.8-0.7,1.8-1.3,2.8-1.6
		c1.1-0.3,2.2-0.5,3.4-0.5h1.9l1.7,0.3h6.7c0.3,0,0.6,0.2,0.7,0.4C184.6,11.9,184.7,12.4,184.7,12.8z M180.3,36.4
		c0-0.9-0.4-1.7-1.1-2.2c-1-0.5-2.1-0.9-3.2-0.9l-5.8-0.2l-1.3,1.2c-0.3,0.3-0.6,0.7-0.8,1.1c-0.2,0.3-0.3,0.7-0.4,1
		c-0.1,0.3-0.1,0.7-0.1,1c0,1.1,0.6,2,1.6,2.4c1.4,0.7,3,1,4.6,0.9c1,0,2.1-0.1,3.1-0.4c0.7-0.2,1.4-0.5,2-0.9
		c0.5-0.4,0.9-0.8,1.1-1.4C180.2,37.5,180.3,36.9,180.3,36.4z M178.3,18.7c0.2-2.5-1.7-4.6-4.2-4.8c-0.2,0-0.4,0-0.6,0
		c-0.7,0-1.4,0.1-2.1,0.4c-0.6,0.2-1.1,0.6-1.5,1.1c-0.4,0.5-0.7,1-0.8,1.6c-0.2,0.6-0.3,1.3-0.3,1.9c-0.1,1.2,0.4,2.5,1.2,3.4
		c1.6,1.3,3.7,1.7,5.6,0.9c0.6-0.2,1.1-0.6,1.5-1c0.4-0.5,0.7-1,0.9-1.6C178.2,20,178.3,19.3,178.3,18.7L178.3,18.7z"/>
</g>
</svg>
